# xmcd
#
# Track frame offsets:
#	150
#	14626
#	36066
#	48314
#	65985
#	82898
#	95040
#	108253
#	122231
#	134990
#	148627
#	161683
#	176598
#	187299
#	203488
#	213526
#	232609
#	249019
#	262140
#	278309
#
# Disc length: 3906 seconds
#
# Revision: 0
# Processed by: cddbd v1.5.1PL2 Copyright (c) Steve Scherf et al.
# Submitted via: dBpowerAMP V4.0
#
DISCID=260f4014
DTITLE=Southern Schoolhouse Rascals - Old School, Mountain Style
DYEAR=2006
DGENRE=Country
TTITLE0=Red Mountain Wine
TTITLE1=Roustabout
TTITLE2=Lulu Loves Them Young
TTITLE3=Little Pink
TTITLE4=Western Plains
TTITLE5=Sunny Home in Dixie
TTITLE6=Gone Home
TTITLE7=Worried Blues
TTITLE8=Going Back to the Blue Ridge Mountains
TTITLE9=Jonah in the Windstorm
TTITLE10=Old Smokey
TTITLE11=Hook and Line
TTITLE12=Mistreated Mamma
TTITLE13=Paul and Silas
TTITLE14=Ship In the Clouds
TTITLE15=Riley and Spencer
TTITLE16=Walking In Jerusalem
TTITLE17=Had a Big Time Today
TTITLE18=Titanic
TTITLE19=Aint Got No Honey Baby Now
EXTD=Oldtime Stringband Music
EXTT0=
EXTT1=
EXTT2=
EXTT3=
EXTT4=
EXTT5=
EXTT6=
EXTT7=
EXTT8=
EXTT9=
EXTT10=
EXTT11=
EXTT12=
EXTT13=
EXTT14=
EXTT15=
EXTT16=
EXTT17=
EXTT18=
EXTT19=
PLAYORDER=
